<svg xmlns="http://www.w3.org/2000/svg" viewBox="0 0 512 512" role="img">
  <title>FastAPI-Restly fr. editorial monogram</title>
  <g fill="#17212b" transform="translate(45 420) scale(1.45)">
    <path d="M121.203-123H85.797V0H28.5v-123H6.594v-28.203l23.109-14.094V-168c0-21.394 4.394-36.992 13.187-46.797 8.801-9.801 23.203-14.703 43.203-14.703 8.602 0 16.407.653 23.407 1.953 7 1.305 14.3 3.25 21.906 5.844l-12.312 37.203c-2.793-.8-5.938-1.5-9.438-2.094-3.5-.601-7.25-.906-11.25-.906-8.406 0-12.609 5.7-12.609 17.094v4.5h35.406Z"/>
    <path d="M244-168.906c3.195 0 6.492.203 9.89.61 3.407.398 5.911.796 7.516 1.202l-5.11 54c-2-.406-4.453-.804-7.359-1.203-2.898-.406-6.945-.61-12.14-.61-4.805 0-9.953.704-15.453 2.11-5.5 1.398-10.25 4.45-14.25 9.156-4 4.7-6 12.047-6 22.047V0h-57.297v-165.906h42.61l9 26.406h2.687c4.601-8.195 11.055-15.145 19.36-20.844 8.3-5.707 17.148-8.562 26.546-8.562Z"/>
    <path fill="#009b84" d="M229.594-24.297c0-10.406 3.05-17.707 9.156-21.906 6.102-4.2 13.453-6.297 22.047-6.297 8.195 0 15.242 2.098 21.14 6.297 5.907 4.2 8.86 11.5 8.86 21.906 0 9.805-2.953 16.903-8.86 21.297-5.898 4.395-12.945 6.594-21.14 6.594-8.594 0-15.945-2.2-22.047-6.594-6.105-4.394-9.156-11.492-9.156-21.297Z"/>
  </g>
</svg>
