<svg xmlns="http://www.w3.org/2000/svg" viewBox="0 0 512 512" role="img">
  <title>FastAPI-Restly fr. code tile monogram</title>
  <rect width="512" height="512" rx="40" fill="#17212b"/>
  <g fill="#f7f9fa" transform="translate(16 365)">
    <path d="M57 0v-102H13.203v-40.5H57V-168c0-15.395 5.25-27.742 15.75-37.047 10.5-9.3 24.25-13.953 41.25-13.953h48.297v39H115.5c-4 0-7.25 1.25-9.75 3.75s-3.75 5.75-3.75 9.75v24h60.297v40.5H102V0Z"/>
    <path d="M205.797 0v-165h43.5v31.203c2.406-10.601 7.656-18.953 15.75-25.047 8.101-6.101 18.254-9.156 30.453-9.156 16.602 0 29.602 5.602 39 16.797 9.395 11.2 14.094 26.602 14.094 46.203v16.5h-45V-102c0-8.602-2.305-15.254-6.907-19.953-4.593-4.696-11.09-7.047-19.484-7.047-8.406 0-14.914 2.653-19.516 7.953-4.593 5.305-6.89 12.852-6.89 22.64V0Z"/>
    <path fill="#12b89e" d="M450 3c-9 0-16.305-2.797-21.906-8.39-5.594-5.602-8.39-12.907-8.39-21.907s2.796-16.297 8.39-21.89c5.601-5.602 12.906-8.407 21.906-8.407s16.297 2.805 21.89 8.407c5.602 5.593 8.407 12.89 8.407 21.89s-2.805 16.305-8.406 21.906C466.297.203 459 3 450 3Z"/>
  </g>
</svg>
